<svg width="103" height="98" viewBox="0 0 103 98" fill="none" xmlns="http://www.w3.org/2000/svg">
<path d="M59.9791 38.4785C60.7024 34.3509 60.0377 30.3655 58.8136 26.4082C58.1538 24.2743 57.2399 22.2624 56.2829 20.2585C56.0681 19.8076 55.5225 19.5315 55.5852 18.9375C54.7081 17.713 54.0565 16.362 53.0488 15.1907C52.2049 14.2112 51.4528 13.0745 50.7651 11.9362C50.5742 11.6188 50.3125 11.3417 49.9663 10.8987C49.8599 12.2262 50.3655 13.2765 50.3085 14.3856C50.2028 16.4666 50.9369 18.4777 50.859 20.5578C50.8433 20.9693 50.7448 21.3802 50.6847 21.789C50.9855 22.3818 50.598 22.9489 50.6295 23.5476C50.7389 25.6006 51.0064 27.6339 51.2839 29.6694C51.9149 30.7157 52.9244 31.4012 53.7477 32.2652C55.5326 34.1411 57.2532 36.076 59.0187 37.9702C59.2771 38.2466 59.4967 38.617 59.9778 38.4765L59.9791 38.4785Z" fill="#D86642"/>
<path d="M17.3019 42.6501C18.1277 43.7159 18.93 44.8027 19.7812 45.8463C22.6864 49.4108 25.8853 52.6812 30.1465 54.5448C31.1666 54.9914 32.1521 55.7585 33.3618 55.7809C33.7306 55.3435 33.5429 54.9036 33.2983 54.5208C32.349 53.0307 31.8029 51.3675 31.1309 49.7517C30.3587 47.8972 29.6257 46.0287 28.8914 44.1581C27.1836 42.771 25.1618 41.8889 23.3257 40.7084C22.9462 40.4648 22.5099 40.5734 22.1103 40.4747C19.2658 38.628 16.1148 37.3329 13.2326 35.4763C14.2728 38.0797 15.8668 40.3205 17.3019 42.6501V42.6501Z" fill="#D86642"/>
<path d="M50.2062 28.2713C79.0186 53.6034 74.6255 74.9981 74.6255 74.9981C74.6255 74.9981 65.369 76.2797 60.8269 83.9634C60.8269 83.9634 40.1251 80.2321 28.2479 42.5382L50.2062 28.2713Z" fill="#E9EBF0"/>
<path d="M43.5519 28.3662C43.4194 28.2316 43.2522 28.1138 43.3303 27.8825C43.0833 26.418 43.0706 26.4291 41.6313 26.7997C39.8197 27.2631 38.0747 27.8781 36.475 28.863C36.6474 29.0548 36.8458 29.2297 36.9861 29.4423C37.606 30.3923 38.4881 31.0171 39.4613 30.2559C40.7053 29.2842 42.2881 29.2016 43.5506 28.3641L43.5519 28.3662Z" fill="#B3B2B3"/>
<path d="M30.4949 36.3526C30.8082 35.8338 30.9549 36.1971 31.1184 36.472C30.9058 36.57 30.9481 36.7059 31.0659 36.8529C31.2724 36.7761 31.4758 36.7299 31.6332 36.5244C32.5683 35.295 33.7792 34.3821 35.0753 33.5744C35.4579 33.3344 35.3526 33.0045 35.2376 32.7209C34.9598 32.036 34.7766 31.3038 34.2854 30.7202C32.7984 31.9586 31.3449 33.2268 30.1846 34.7946C29.4962 35.7233 29.501 35.766 30.4949 36.3526Z" fill="#B2B1B2"/>
<path d="M74.7053 75.064C71.4175 75.7182 68.3516 76.896 65.611 78.863C63.9686 80.0419 62.4942 81.3925 61.2829 83.0223C61.0682 83.3109 60.8966 83.6087 60.8271 83.9634C60.7222 84.2236 60.8009 84.4334 61.0615 84.502C62.743 84.9372 64.4101 85.4823 66.1188 85.7394C67.2354 85.9083 68.3682 86.1067 69.4645 86.1827C69.9862 86.2193 70.6008 86.3072 71.1516 86.3449C71.8834 86.394 72.2252 86.1261 72.4763 85.533C73.3453 83.4749 73.9064 81.3103 74.5175 79.1703C74.8475 78.0215 74.6169 76.7582 74.9412 75.5786C74.9792 75.4392 74.7883 75.2365 74.7019 75.0633L74.7053 75.064Z" fill="#D86642"/>
<path d="M58.7315 65.4511C62.4369 63.0178 63.4797 58.0377 61.0618 54.3114C58.6634 50.6154 53.5726 49.4714 49.9266 51.8116C46.1289 54.2475 45.0536 59.2918 47.5212 63.0948C50.0383 66.9744 54.8658 67.9886 58.7315 65.4511Z" fill="black"/>
<path d="M50.1526 53.7889C48.8517 54.8004 48.1019 56.1274 47.7769 57.746C47.6612 58.3285 47.7773 58.8293 47.9455 59.3535C48.2202 59.6508 48.567 59.7953 48.9505 59.9044C52.1229 60.8101 55.3035 61.6846 58.4744 62.5969C58.9036 62.7193 59.3022 62.6668 59.7162 62.5985C60.2398 61.8283 60.5646 60.9751 60.8719 60.0904C61.342 58.7358 60.7107 57.6583 60.2188 56.5189C59.7378 55.9599 59.0363 55.874 58.3968 55.6904C56.2562 55.0689 54.0978 54.5077 51.9634 53.865C51.3617 53.6827 50.7641 53.6123 50.1547 53.7876L50.1526 53.7889Z" fill="#8175B3"/>
<path d="M59.7154 62.6026C56.237 61.5977 52.762 60.5848 49.2795 59.5911C48.847 59.468 48.391 59.4317 47.9447 59.3576C47.9171 62.136 50.2814 64.6616 53.4034 65.1242C55.7333 65.4707 57.7134 64.7833 59.2788 62.9837C59.4044 62.839 59.5694 62.729 59.7167 62.6046L59.7154 62.6026Z" fill="#6354A0"/>
<path d="M50.1529 53.7885C53.2221 54.658 56.2893 55.5287 59.36 56.3915C59.6378 56.4691 59.9315 56.4789 60.2183 56.5219C60.2556 56.3772 60.2664 56.2355 60.1316 56.1281C58.2265 51.9626 53.0509 51.2377 50.1529 53.7885Z" fill="#6354A1"/>
<path d="M36.5628 28.4158C35.1035 26.8586 33.5898 25.3626 31.8096 23.9078C32.1749 26.1672 33.071 28.1075 33.7048 30.1264C33.5808 30.7488 33.9076 31.2674 34.1201 31.803C34.2874 32.2246 34.2538 32.5158 33.8811 32.8153C32.6234 33.8188 31.3406 34.8013 30.3425 36.0919C29.2882 36.8027 28.6269 37.9232 27.6506 38.7152C27.6004 38.7564 27.5647 38.8111 27.5276 38.8639C26.9792 39.6616 27.7697 42.7283 28.6533 43.2234C29.1194 43.2444 29.4164 42.9512 29.7509 42.6851C31.8195 41.0344 33.7087 39.1591 35.9272 37.7005C36.827 37.1072 36.9878 37.083 37.5456 38.0249C38.8318 40.199 40.494 42.0744 42.1604 43.9298C43.4538 45.3712 44.8661 46.7324 46.4707 47.8541C46.7406 48.0427 47.0167 48.2761 47.3474 48.0613C47.7041 47.8295 47.6777 47.4367 47.5727 47.0894C46.8036 44.5047 46.0644 41.9092 44.8239 39.4933C43.9459 37.7878 43.0973 36.066 41.9943 34.4923C41.5873 33.9112 41.9841 33.7107 42.3639 33.5499C43.3781 33.1203 44.3228 32.5437 45.3225 32.1092C46.9272 31.4135 48.3868 30.4537 49.9829 29.7578C50.3581 29.5942 50.5961 29.2934 50.7388 28.9112C50.4827 27.1684 48.5071 25.8866 46.8751 26.3421C45.7021 26.6714 44.5268 26.9706 43.5013 27.6599C42.5773 28.0309 41.621 28.3168 40.7034 28.7152C40.3229 28.8793 39.9471 28.9716 39.6272 29.2998C39.1692 29.7665 38.3245 29.6704 37.8259 29.2118C37.4534 28.869 37.1695 28.377 36.5629 28.4071L36.5628 28.4158Z" fill="#D86642"/>
</svg>
