<svg width="168" height="415" viewBox="0 0 168 415" fill="none" xmlns="http://www.w3.org/2000/svg">
<path d="M30.3389 394.76L30.6769 394.194L30.2832 394.713C29.4942 393.971 28.7143 393.221 27.9268 392.469C27.6603 392.211 27.5997 391.758 27.7935 391.445C27.9874 391.131 28.3514 391.083 28.6179 391.342C29.3978 392.091 30.1868 392.834 30.9668 393.583L30.6754 394.203L30.3374 394.769L30.3389 394.76Z" fill="#D86642"/>
<path d="M23.9823 388.025C23.8917 387.997 23.8056 387.94 23.7316 387.858C22.046 386.072 20.6049 384.393 19.3193 382.734C19.0821 382.436 19.0863 381.973 19.3139 381.697C19.5415 381.422 19.9173 381.455 20.1545 381.753C21.4144 383.374 22.8298 385.016 24.4807 386.772C24.7374 387.048 24.7741 387.504 24.5736 387.808C24.4289 388.013 24.2011 388.095 23.9973 388.03L23.9823 388.025ZM15.7789 377.279C15.6431 377.236 15.5102 377.126 15.4165 376.97L15.152 376.499C14.0759 374.578 13.1476 372.531 12.4018 370.435C12.2657 370.053 12.3981 369.631 12.6983 369.495C12.9924 369.347 13.3502 369.538 13.4788 369.918C14.1913 371.926 15.0803 373.873 16.1141 375.713L16.374 376.163C16.5645 376.505 16.5151 376.953 16.2481 377.178C16.1094 377.298 15.9389 377.321 15.7804 377.27L15.7789 377.279Z" fill="#D86642"/>
<path d="M11.6083 360.407C11.3658 360.33 11.167 360.09 11.1214 359.769C10.7313 357.154 10.6667 354.613 10.9227 352.222C10.9646 351.82 11.2724 351.551 11.6056 351.626C11.931 351.699 12.1784 352.093 12.1365 352.495C11.896 354.743 11.9621 357.127 12.3285 359.586C12.3914 360.001 12.1665 360.365 11.8366 360.419C11.76 360.435 11.6802 360.419 11.6098 360.397L11.6083 360.407ZM13.2103 346.259C13.1556 346.242 13.1024 346.215 13.0429 346.177C12.7409 345.963 12.6279 345.502 12.784 345.156C13.7159 343.057 14.9732 341.129 16.5247 339.413C16.7668 339.144 17.1563 339.177 17.3927 339.489C17.6291 339.801 17.6248 340.274 17.3748 340.541C15.9155 342.148 14.7347 343.961 13.8684 345.913C13.7373 346.207 13.4622 346.328 13.2041 346.247L13.2103 346.259ZM21.6268 336.631C21.4625 336.579 21.3185 336.455 21.2198 336.256C21.0413 335.893 21.1331 335.437 21.4286 335.244C23.0103 334.19 24.786 333.207 26.8636 332.24C27.1762 332.091 27.5376 332.294 27.6724 332.673C27.8135 333.063 27.6684 333.492 27.3573 333.631C25.3329 334.576 23.6026 335.533 22.0661 336.562C21.927 336.656 21.7769 336.668 21.6283 336.622L21.6268 336.631ZM32.585 331.333C32.3816 331.269 32.2063 331.086 32.1263 330.823C32.0103 330.431 32.171 330.007 32.4868 329.889C33.5764 329.471 34.6708 329.074 35.7495 328.672C36.5562 328.373 37.3629 328.073 38.1603 327.781C38.4761 327.663 38.8344 327.884 38.9504 328.277C39.0665 328.669 38.9057 329.093 38.5899 329.211C37.7926 329.504 36.9859 329.803 36.1714 330.1C35.0927 330.502 34.0061 330.901 32.918 331.31C32.8039 331.353 32.6897 331.347 32.5881 331.315L32.585 331.333ZM43.8629 326.938C43.6674 326.876 43.4984 326.704 43.4137 326.47C43.2805 326.082 43.4255 325.653 43.7366 325.514C45.6298 324.667 47.4509 323.757 49.1625 322.813C49.4626 322.641 49.8365 322.818 49.9885 323.192C50.1405 323.566 50.0252 324.015 49.7266 324.178C47.9962 325.135 46.1407 326.053 44.2288 326.914C44.1132 326.967 43.9881 326.977 43.8629 326.938ZM54.5813 321.001C54.4171 320.949 54.2731 320.825 54.1807 320.637C54.0021 320.275 54.0862 319.817 54.3816 319.623C56.1165 318.439 57.7684 317.16 59.2936 315.851C59.5624 315.62 59.9503 315.712 60.1586 316.045C60.3653 316.387 60.3125 316.855 60.0437 317.086C58.4888 318.425 56.8087 319.725 55.0364 320.937C54.8972 321.031 54.7377 321.05 54.5891 321.003L54.5813 321.001ZM64.0857 312.704C63.9684 312.667 63.8573 312.593 63.7696 312.476C63.5332 312.164 63.5375 311.691 63.7719 311.419C64.6203 310.47 65.4186 309.476 66.1699 308.467C66.6995 307.754 67.2071 307.024 67.6929 306.277C67.8928 305.965 68.2775 305.928 68.5545 306.193C68.8221 306.465 68.8757 306.937 68.6758 307.249C68.176 308.031 67.6481 308.784 67.1076 309.514C66.3437 310.549 65.5095 311.561 64.647 312.545C64.4955 312.715 64.2891 312.768 64.0936 312.707L64.0857 312.704ZM61.237 302.177C60.9085 302.074 60.6876 301.668 60.7546 301.264C60.8215 300.86 61.1403 300.624 61.4766 300.73C63.435 301.327 65.4231 301.795 67.3829 302.086C67.7285 302.136 67.979 302.512 67.9528 302.919C67.9344 303.328 67.639 303.621 67.3028 303.564C65.2961 303.258 63.2502 302.792 61.2464 302.17L61.237 302.177ZM55.3957 299.931C55.3957 299.931 55.3487 299.917 55.3253 299.909C53.3838 299.011 51.475 297.965 49.6365 296.792C49.3314 296.597 49.1934 296.138 49.3354 295.778C49.4774 295.417 49.8464 295.276 50.1515 295.471C51.9462 296.61 53.8096 297.632 55.7057 298.506C56.0264 298.657 56.2019 299.088 56.1053 299.473C56.0055 299.827 55.7023 300.018 55.4051 299.924L55.3957 299.931ZM73.2458 304.003C72.9799 303.919 72.7732 303.627 72.7557 303.285C72.7334 302.872 72.9865 302.537 73.3243 302.535C75.3182 302.52 77.2995 302.334 79.2164 301.988C79.5479 301.925 79.8703 302.214 79.9426 302.623C80.0149 303.031 79.7963 303.407 79.4648 303.471C77.4962 303.829 75.4571 304.017 73.4053 304.033C73.3474 304.035 73.299 304.029 73.2442 304.012L73.2458 304.003ZM71.292 301.538C71.2373 301.521 71.1763 301.492 71.1246 301.456C70.8226 301.242 70.7096 300.782 70.8673 300.426C71.7929 298.364 72.5887 296.193 73.2265 293.981C73.3387 293.601 73.6764 293.401 74.0096 293.575C74.3288 293.735 74.5043 294.166 74.392 294.546C73.7324 296.84 72.9101 299.072 71.9564 301.204C71.8268 301.489 71.5501 301.62 71.292 301.538ZM44.4866 292.955C44.4162 292.933 44.3411 292.889 44.2754 292.839C42.532 291.341 40.8949 289.698 39.4062 287.953C39.151 287.655 39.1381 287.187 39.3599 286.891C39.588 286.607 39.9758 286.6 40.2294 286.908C41.6633 288.585 43.2504 290.183 44.9437 291.636C45.2317 291.885 45.3118 292.345 45.1245 292.681C44.9839 292.934 44.7275 293.041 44.4851 292.964L44.4866 292.955ZM85.0182 301.839C84.8149 301.775 84.6396 301.591 84.5659 301.34C84.4498 300.948 84.6105 300.524 84.9263 300.406C86.5866 299.772 88.2077 298.978 89.7332 298.064L90.2834 297.724C90.5773 297.539 90.9559 297.688 91.1251 298.058C91.2943 298.428 91.1946 298.881 90.9007 299.065L90.3318 299.42C88.7437 300.363 87.0695 301.18 85.3638 301.839C85.2497 301.882 85.134 301.885 85.0245 301.851L85.0182 301.839ZM35.6249 282.461C35.4841 282.417 35.3448 282.314 35.2571 282.148C33.9666 279.952 32.9326 277.698 32.1738 275.422C32.0406 275.034 32.1935 274.608 32.5046 274.468C32.8157 274.329 33.1755 274.541 33.3088 274.929C34.0221 277.082 35.0076 279.232 36.2417 281.321C36.4484 281.663 36.3878 282.128 36.119 282.36C35.9752 282.483 35.7969 282.516 35.6327 282.464L35.6249 282.461ZM95.392 295.25C95.2591 295.208 95.1339 295.119 95.043 294.972C94.8254 294.646 94.8547 294.171 95.1172 293.927C96.6142 292.491 98.0172 290.876 99.2872 289.121C99.5012 288.823 99.8905 288.807 100.149 289.086C100.407 289.365 100.443 289.841 100.229 290.14C98.908 291.958 97.4534 293.635 95.908 295.116C95.7611 295.257 95.5657 295.295 95.3936 295.24L95.392 295.25ZM75.1872 288.004C74.8665 287.903 74.6442 287.507 74.7017 287.11C75.0359 284.744 75.2028 282.344 75.193 279.968C75.1958 279.554 75.4614 279.242 75.8039 279.261C76.137 279.287 76.4172 279.632 76.4223 280.049C76.4353 282.505 76.2622 284.991 75.9139 287.442C75.8564 287.84 75.5423 288.097 75.2044 288L75.1888 287.995L75.1872 288.004ZM31.1955 268.707C30.9296 268.623 30.7213 268.34 30.7038 267.999C30.6452 267.011 30.6365 266.02 30.6748 265.043C30.7147 264.107 30.814 263.159 30.9649 262.248C31.0614 261.665 31.1813 261.09 31.3169 260.52C31.4135 260.135 31.7496 259.944 32.075 260.066C32.3972 260.207 32.59 260.634 32.4933 261.019C32.3655 261.542 32.2518 262.08 32.1631 262.615C32.0231 263.461 31.9284 264.331 31.8916 265.199C31.847 266.114 31.8587 267.038 31.9111 267.964C31.9412 268.379 31.6881 268.714 31.3488 268.726C31.2909 268.727 31.2346 268.72 31.1798 268.702L31.1955 268.707ZM103.11 284.621C103.048 284.601 102.979 284.57 102.921 284.522C102.63 284.292 102.534 283.826 102.706 283.485C103.714 281.469 104.576 279.348 105.257 277.17C105.377 276.793 105.729 276.607 106.044 276.795C106.361 276.964 106.52 277.4 106.399 277.777C105.69 280.025 104.799 282.226 103.754 284.31C103.618 284.583 103.353 284.697 103.102 284.618L103.11 284.621ZM75.1125 273.398C74.8778 273.324 74.679 273.083 74.6318 272.772C74.2624 270.431 73.6787 268.092 72.8792 265.813C72.7459 265.425 72.8832 264.994 73.1943 264.854C73.5054 264.715 73.8683 264.908 74.0016 265.296C74.834 267.674 75.4569 270.125 75.8405 272.579C75.905 272.985 75.6863 273.361 75.3564 273.415C75.2798 273.431 75.1985 273.425 75.1203 273.4L75.1125 273.398ZM34.4463 255.138C34.3603 255.111 34.2774 255.065 34.207 254.994C33.9299 254.728 33.867 254.264 34.0685 253.942C35.2585 252.023 36.7099 250.315 38.3898 248.867C38.6586 248.635 39.0465 248.728 39.2532 249.069C39.46 249.411 39.4072 249.879 39.1384 250.111C37.5538 251.48 36.1852 253.086 35.0623 254.897C34.9171 255.128 34.6716 255.219 34.4448 255.148L34.4463 255.138ZM70.3281 259.7C70.1795 259.653 70.0418 259.541 69.9541 259.374C68.7873 257.326 67.4611 255.445 66.01 253.772C65.7533 253.483 65.7342 253.003 65.9544 252.716C66.1762 252.42 66.5704 252.426 66.8192 252.712C68.3408 254.457 69.7249 256.435 70.9433 258.569C71.1407 258.918 71.0801 259.383 70.805 259.603C70.6628 259.716 70.4845 259.749 70.3281 259.7ZM107.309 271.242C106.98 271.138 106.766 270.745 106.823 270.347C107.175 267.976 107.324 265.582 107.271 263.222C107.264 262.814 107.533 262.483 107.868 262.5C108.204 262.507 108.49 262.864 108.497 263.272C108.551 265.731 108.393 268.222 108.034 270.689C107.967 271.093 107.655 271.341 107.324 271.247L107.309 271.242ZM43.868 246.944C43.6724 246.883 43.4956 246.708 43.4219 246.458C43.298 246.063 43.4493 245.646 43.7604 245.506C45.7146 244.688 47.7409 244.229 49.7645 244.135C50.1054 244.114 50.4044 244.446 50.436 244.851C50.466 245.266 50.2192 245.613 49.8877 245.628C47.9721 245.716 46.0724 246.156 44.2245 246.928C44.1088 246.981 43.9853 246.981 43.8758 246.947L43.868 246.944ZM61.3493 249.416C61.2945 249.399 61.2335 249.37 61.1819 249.334C59.4152 248.075 57.5659 247.117 55.6872 246.486C55.3587 246.382 55.1488 245.96 55.2141 245.566C55.2795 245.171 55.614 244.94 55.9425 245.044C57.9307 245.71 59.8864 246.721 61.7469 248.059C62.0489 248.272 62.1619 248.733 62.0042 249.089C61.8747 249.374 61.598 249.505 61.3399 249.423L61.3493 249.416ZM106.959 256.657C106.732 256.586 106.546 256.369 106.48 256.071L106.403 255.691C105.941 253.509 105.292 251.317 104.479 249.172C104.336 248.791 104.465 248.358 104.772 248.197C105.077 248.046 105.441 248.23 105.592 248.614C106.439 250.848 107.115 253.127 107.594 255.404L107.678 255.796C107.759 256.197 107.562 256.59 107.228 256.673C107.134 256.693 107.043 256.694 106.957 256.667L106.959 256.657ZM101.859 243.077C101.71 243.031 101.572 242.918 101.477 242.749C100.379 240.782 99.1184 238.803 97.7093 236.876C97.4745 236.555 97.4944 236.087 97.735 235.826C97.9835 235.568 98.3729 235.602 98.5999 235.921C100.042 237.898 101.343 239.929 102.472 241.956C102.67 242.305 102.601 242.768 102.326 242.987C102.184 243.101 102.015 243.127 101.851 243.075L101.859 243.077ZM93.6719 231.738C93.5702 231.706 93.4732 231.646 93.3902 231.551C91.9391 229.927 90.3552 228.311 88.6743 226.733C88.3972 226.468 88.3343 226.003 88.528 225.679C88.7294 225.356 89.1078 225.308 89.3864 225.563C91.0877 227.167 92.7076 228.815 94.1869 230.467C94.4436 230.755 94.4721 231.229 94.2503 231.525C94.1019 231.725 93.8768 231.793 93.6656 231.726L93.6719 231.738ZM83.8869 222.447C83.8165 222.424 83.7492 222.383 83.6835 222.333C82.1796 221.078 80.538 219.76 78.5256 218.197C78.2345 217.967 78.1293 217.508 78.3026 217.158C78.4743 216.816 78.8449 216.716 79.1438 216.948C81.1703 218.526 82.8197 219.846 84.3393 221.106C84.6288 221.346 84.7152 221.818 84.5372 222.147C84.3951 222.409 84.1387 222.516 83.8962 222.44L83.8869 222.447ZM73.4741 214.262C73.4116 214.243 73.3505 214.213 73.2926 214.165C71.5416 212.813 69.7983 211.463 68.0706 210.068C67.7811 209.829 67.6853 209.364 67.8649 209.025C68.0444 208.686 68.4197 208.606 68.7108 208.836C70.4228 210.226 72.1661 211.576 73.9031 212.914C74.1941 213.144 74.2993 213.603 74.1276 213.944C73.9917 214.218 73.726 214.332 73.4757 214.253L73.4741 214.262ZM63.1691 205.874C63.0909 205.85 63.0158 205.806 62.9438 205.744C61.7748 204.704 60.7121 203.716 59.6932 202.713C59.1329 202.171 58.5772 201.6 58.0309 201.023C57.7648 200.741 57.7269 200.274 57.9425 199.967C58.158 199.659 58.5396 199.641 58.8057 199.922C59.3457 200.488 59.8872 201.044 60.4335 201.572C61.4383 202.561 62.4869 203.534 63.6341 204.558C63.9142 204.804 63.9928 205.274 63.7976 205.608C63.6586 205.851 63.4038 205.948 63.1691 205.874ZM53.8496 195.909C53.7323 195.872 53.6149 195.785 53.5273 195.669C52.0525 193.691 50.7434 191.658 49.6392 189.629C49.4434 189.271 49.5181 188.82 49.7931 188.6C50.076 188.382 50.4514 188.501 50.6488 188.85C51.7216 190.819 52.9853 192.779 54.4116 194.702C54.648 195.013 54.6359 195.484 54.3937 195.754C54.2437 195.914 54.0373 195.968 53.8496 195.909ZM47.1192 183.328C46.9237 183.266 46.7546 183.095 46.6715 182.851C45.8563 180.369 45.3303 177.88 45.114 175.459C45.0761 175.042 45.3229 174.694 45.656 174.671C45.9969 174.65 46.2975 174.972 46.3275 175.387C46.5265 177.664 47.0257 180.016 47.7971 182.365C47.9304 182.753 47.7775 183.18 47.4664 183.319C47.3507 183.371 47.2272 183.372 47.1098 183.335L47.1192 183.328ZM45.9248 168.873L45.9092 168.868C45.5807 168.764 45.3708 168.342 45.4455 167.941C45.8845 165.538 46.6598 163.241 47.7449 161.112C47.9167 160.77 48.295 160.672 48.5846 160.911C48.8756 161.142 48.9714 161.607 48.7997 161.948C47.7848 163.952 47.0579 166.106 46.6453 168.348C46.58 168.743 46.2549 168.967 45.9264 168.863L45.9248 168.873ZM51.9184 156.83C51.8011 156.794 51.6915 156.71 51.5961 156.59C51.3597 156.279 51.3639 155.806 51.6139 155.538C53.0326 153.978 54.6672 152.555 56.4709 151.304C56.7584 151.108 57.1401 151.238 57.3187 151.601C57.4973 151.964 57.4132 152.422 57.1257 152.618C55.3876 153.82 53.8281 155.188 52.4703 156.678C52.3188 156.848 52.1139 156.892 51.9262 156.833L51.9184 156.83ZM62.0337 149.715C61.8382 149.654 61.6691 149.482 61.5861 149.238C61.4528 148.85 61.6057 148.424 61.9168 148.284C63.7802 147.467 65.7392 146.819 67.7249 146.357C68.0501 146.282 68.385 146.545 68.4745 146.949C68.5561 147.351 68.3594 147.743 68.0327 147.828C66.1064 148.279 64.2084 148.907 62.3981 149.701C62.2824 149.754 62.1589 149.755 62.0416 149.718L62.0337 149.715ZM73.69 146.961C73.4318 146.88 73.2299 146.608 73.2015 146.283C73.162 145.875 73.4026 145.516 73.7435 145.495C75.5918 145.365 77.5732 145.327 79.8049 145.368C80.1489 145.377 80.4307 145.713 80.4451 146.123C80.4595 146.533 80.1986 146.866 79.8624 146.859C77.6636 146.819 75.7151 146.857 73.8917 146.985C73.8245 146.993 73.7604 146.983 73.6978 146.963L73.69 146.961ZM85.7396 147.099C85.458 147.01 85.2466 146.697 85.2479 146.341C85.2429 145.924 85.5178 145.605 85.851 145.631L88.164 145.777C89.4026 145.851 90.6475 145.936 91.8799 145.998C92.2209 146.027 92.5011 146.372 92.4999 146.777C92.5049 147.194 92.2299 147.512 91.8952 147.496C90.6551 147.431 89.4086 147.355 88.1637 147.269L85.8506 147.124C85.81 147.121 85.7615 147.116 85.7224 147.103L85.7396 147.099ZM97.8099 147.659C97.544 147.575 97.3373 147.283 97.3214 146.931C97.2991 146.519 97.56 146.186 97.8978 146.184C100.061 146.193 102.009 146.105 103.856 145.935C104.19 145.902 104.502 146.208 104.548 146.628C104.595 147.038 104.362 147.4 104.028 147.433C102.154 147.614 100.173 147.701 97.9694 147.689C97.9194 147.693 97.8646 147.676 97.8177 147.661L97.8099 147.659ZM109.733 146.422C109.506 146.351 109.32 146.134 109.262 145.839C109.18 145.437 109.377 145.045 109.704 144.96C111.622 144.506 113.531 143.911 115.395 143.193C115.711 143.075 116.069 143.297 116.185 143.689C116.301 144.082 116.14 144.506 115.825 144.624C113.927 145.351 111.966 145.959 110.012 146.431C109.918 146.451 109.827 146.452 109.741 146.425L109.733 146.422ZM121.008 142.095C120.828 142.038 120.672 141.89 120.576 141.672C120.424 141.298 120.547 140.852 120.846 140.689C122.645 139.713 124.375 138.607 125.99 137.406C126.271 137.198 126.654 137.318 126.842 137.674C127.03 138.03 126.954 138.491 126.673 138.698C125.021 139.928 123.247 141.05 121.401 142.06C121.274 142.129 121.133 142.134 121 142.092L121.008 142.095ZM130.99 134.641C130.865 134.601 130.748 134.515 130.654 134.386C130.428 134.058 130.448 133.59 130.705 133.335C132.219 131.795 133.595 130.142 134.787 128.412C134.994 128.101 135.385 128.076 135.652 128.358C135.918 128.639 135.956 129.106 135.748 129.416C134.514 131.203 133.086 132.918 131.522 134.512C131.373 134.663 131.176 134.709 130.989 134.65L130.99 134.641ZM138.447 123.751C138.392 123.734 138.337 123.717 138.28 123.669C137.978 123.455 137.865 122.994 138.021 122.648C138.125 122.414 138.231 122.171 138.328 121.934C139.107 120.064 139.837 118.139 140.502 116.212C140.63 115.837 140.986 115.673 141.301 115.861C141.617 116.04 141.764 116.491 141.638 116.857C140.961 118.809 140.218 120.76 139.434 122.659C139.327 122.911 139.221 123.155 139.113 123.408C138.982 123.702 138.707 123.823 138.449 123.742L138.447 123.751ZM143.024 110.521C143.024 110.521 142.977 110.507 142.954 110.499C142.633 110.349 142.45 109.915 142.554 109.533C143.181 107.189 143.706 104.863 144.101 102.625C144.167 102.23 144.5 102.009 144.83 102.103C145.166 102.209 145.368 102.628 145.303 103.023C144.892 105.306 144.361 107.67 143.725 110.07C143.625 110.424 143.321 110.615 143.024 110.521ZM108.007 94.526L107.991 94.5211C105.975 93.8265 104.002 92.9183 102.144 91.8185C101.829 91.6305 101.688 91.1905 101.816 90.8156C101.952 90.4431 102.308 90.2786 102.621 90.476C104.412 91.5348 106.309 92.409 108.256 93.072C108.585 93.1755 108.795 93.5975 108.72 93.9991C108.654 94.3938 108.329 94.6177 108.001 94.5142L108.007 94.526ZM113.979 95.9329C113.682 95.8393 113.475 95.4973 113.487 95.1254C113.506 94.716 113.793 94.421 114.131 94.4681C116.072 94.7237 118.068 94.7987 120.06 94.6947C120.401 94.6736 120.701 94.9957 120.731 95.4105C120.769 95.8278 120.522 96.1752 120.183 96.1869C118.124 96.2994 116.062 96.2234 114.067 95.9506C114.035 95.9407 114.004 95.9309 113.981 95.9235L113.979 95.9329ZM97.0717 87.8083C96.9779 87.7787 96.8887 87.7209 96.8104 87.6469C95.0402 85.8137 93.6326 83.8279 92.6394 81.7255C92.4702 81.3558 92.5605 80.9097 92.8559 80.716C93.1419 80.5293 93.5221 80.6688 93.6991 81.041C94.6093 82.9492 95.948 84.854 97.5789 86.5345C97.8466 86.8066 97.8908 87.2852 97.683 87.5955C97.5315 87.8147 97.297 87.8891 97.078 87.8201L97.0717 87.8083ZM125.941 95.3115C125.714 95.2401 125.527 95.0232 125.461 94.7256C125.38 94.3242 125.577 93.9313 125.911 93.8489C127.82 93.4024 129.724 92.7862 131.563 92.0208C131.88 91.8934 132.232 92.1031 132.366 92.4912C132.489 92.8861 132.338 93.3031 132.027 93.4424C130.135 94.2306 128.18 94.8602 126.211 95.3177C126.117 95.3376 126.027 95.3386 125.941 95.3115ZM145.491 96.3693C145.186 96.2732 144.973 95.9194 145.003 95.543C145.18 93.0284 145.178 90.6055 145.009 88.3474C144.979 87.9326 145.226 87.5852 145.565 87.5735C145.897 87.5593 146.205 87.8838 146.235 88.2987C146.414 90.6487 146.41 93.1587 146.226 95.7603C146.199 96.1673 145.898 96.448 145.562 96.3914C145.538 96.3841 145.515 96.3767 145.491 96.3693ZM137.115 90.6951C136.943 90.6409 136.793 90.5046 136.703 90.2985C136.534 89.9288 136.642 89.4782 136.936 89.294C138.666 88.2374 140.34 87.0247 141.917 85.7023C142.185 85.4706 142.572 85.5725 142.778 85.9145C142.985 86.2564 142.925 86.7218 142.656 86.9535C141.04 88.3131 139.319 89.5605 137.542 90.6517C137.406 90.7275 137.264 90.742 137.123 90.6976L137.115 90.6951ZM91.5281 75.0181C91.2309 74.9245 91.0164 74.5801 91.0364 74.2107C91.061 73.7636 91.1029 73.3121 91.1698 72.8586L91.2056 72.6425C91.509 70.8101 92.1908 68.9784 93.2403 67.213C93.4339 66.8884 93.8139 66.8301 94.0925 67.086C94.371 67.3418 94.4418 67.809 94.2482 68.1336C93.2909 69.7402 92.673 71.3845 92.4022 73.0195L92.3711 73.2074C92.3136 73.6046 92.2732 73.9972 92.2579 74.3879C92.2395 74.7973 91.9442 75.0899 91.6063 75.0428C91.5751 75.0329 91.5516 75.0255 91.5203 75.0157L91.5281 75.0181ZM146.72 82.5884C146.602 82.5515 146.491 82.4769 146.404 82.3603C146.167 82.0486 146.162 81.5823 146.406 81.3031C147.825 79.6936 149.134 77.9507 150.313 76.1471C150.513 75.8343 150.907 75.7904 151.174 76.0626C151.442 76.3347 151.496 76.8064 151.296 77.1191C150.082 78.9811 148.732 80.7706 147.273 82.4266C147.122 82.5964 146.915 82.65 146.72 82.5884ZM144.267 81.7959C144.064 81.7318 143.882 81.5362 143.81 81.2762C143.153 78.9336 142.245 76.7594 141.104 74.8079C140.906 74.459 140.958 74.0005 141.234 73.7713C141.501 73.549 141.889 73.6416 142.094 73.9929C143.307 76.0655 144.272 78.3865 144.971 80.871C145.078 81.2704 144.911 81.6825 144.597 81.7911C144.492 81.8273 144.376 81.8304 144.275 81.7984L144.267 81.7959ZM97.8396 63.4911C97.6988 63.4468 97.5611 63.3342 97.464 63.1751C97.2667 62.8262 97.3179 62.3678 97.5945 62.1385C98.6619 61.2587 99.7779 60.5326 100.894 60.0043C101.591 59.6703 102.326 59.358 103.081 59.0719C103.397 58.9539 103.755 59.1755 103.87 59.5774C103.986 59.9699 103.825 60.3938 103.509 60.5119C102.781 60.7866 102.08 61.0899 101.402 61.4101C100.364 61.9136 99.3229 62.5842 98.3228 63.4061C98.179 63.5289 98.0023 63.5523 97.838 63.5005L97.8396 63.4911ZM137.354 69.474C137.252 69.442 137.155 69.3817 137.072 69.2864C135.594 67.6245 133.967 66.1231 132.23 64.8343C131.937 64.6136 131.824 64.1529 131.99 63.7996C132.154 63.4558 132.526 63.3456 132.826 63.5688C134.635 64.9198 136.327 66.481 137.867 68.212C138.124 68.5005 138.153 68.9742 137.931 69.2701C137.782 69.4706 137.557 69.5381 137.346 69.4715L137.354 69.474ZM108.992 59.0063C108.75 58.9299 108.559 58.6918 108.512 58.3803C108.449 57.965 108.666 57.5984 109.004 57.5466C110.996 57.2448 113.046 57.1393 115.098 57.2222C115.44 57.2411 115.72 57.5865 115.727 57.9939C115.734 58.4014 115.465 58.7319 115.13 58.7155C113.146 58.6241 111.161 58.7306 109.229 59.0214C109.152 59.0368 109.072 59.0216 108.994 58.9969L108.992 59.0063ZM153.928 71.4131C153.873 71.3958 153.812 71.3667 153.76 71.3307C153.458 71.1169 153.345 70.6561 153.511 70.3029C154.458 68.2088 155.238 66.0323 155.829 63.8555C155.934 63.4731 156.276 63.2943 156.6 63.4259C156.921 63.5764 157.096 64.0074 156.999 64.3922C156.385 66.6605 155.577 68.9073 154.592 71.0786C154.462 71.364 154.186 71.4944 153.928 71.4131ZM126.88 61.6066C126.88 61.6066 126.833 61.5918 126.81 61.5844C124.97 60.7181 123.001 60.0383 121.039 59.5587C120.703 59.5022 120.468 59.0822 120.518 58.6826C120.569 58.2736 120.875 58.0142 121.207 58.0989C123.24 58.5912 125.271 59.3001 127.187 60.2005C127.508 60.351 127.683 60.782 127.579 61.1643C127.479 61.5184 127.176 61.7096 126.879 61.616L126.88 61.6066ZM157.552 57.7741C157.247 57.678 157.028 57.3123 157.059 56.9266C157.232 54.9346 157.26 52.9265 157.126 50.9562C157.1 50.5626 157.066 50.176 157.025 49.7775C156.977 49.3671 157.218 49.0079 157.553 48.9749C157.894 48.9538 158.197 49.257 158.237 49.6649C158.282 50.0847 158.32 50.502 158.342 50.9144C158.477 52.9836 158.457 55.0931 158.269 57.1696C158.235 57.5741 157.934 57.8548 157.591 57.7864C157.576 57.7815 157.552 57.7741 157.537 57.7691L157.552 57.7741ZM155.937 43.2753C155.742 43.2137 155.573 43.0418 155.489 42.7981C154.734 40.553 153.758 38.3966 152.577 36.3834C152.37 36.0414 152.431 35.5761 152.7 35.3444C152.976 35.1151 153.355 35.2146 153.561 35.5566C154.8 37.6672 155.831 39.9397 156.618 42.2935C156.751 42.6816 156.598 43.108 156.287 43.2472C156.172 43.2998 156.048 43.3004 155.931 43.2634L155.937 43.2753ZM148.785 31.1054C148.691 31.0759 148.602 31.0181 148.517 30.9321C146.957 29.2738 145.273 27.9129 143.517 26.8852C143.203 26.6972 143.062 26.2572 143.19 25.8823C143.325 25.5098 143.68 25.3546 143.995 25.5427C145.855 26.633 147.633 28.073 149.284 29.8292C149.55 30.1107 149.588 30.5775 149.373 30.8853C149.223 31.0951 148.988 31.1695 148.777 31.103L148.785 31.1054Z" fill="#D86642"/>
<path d="M135.259 21.8663C134.966 21.7737 134.721 21.5071 134.668 21.1875C134.599 20.7873 134.866 20.4552 135.253 20.445C136.472 20.4227 137.71 20.5108 138.938 20.7188C139.331 20.7953 139.646 21.1599 139.639 21.555C139.631 21.9501 139.308 22.2169 138.913 22.1584C137.768 21.9675 136.617 21.8783 135.485 21.8997C135.408 21.9036 135.324 21.8865 135.25 21.8634L135.259 21.8663Z" fill="#D86642"/>
</svg>
